HIERARCHY
ROOT Hips
{
	OFFSET 0.00000 0.00000 0.00000
	CHANNELS 6 Xposition Yposition Zposition Zrotation Yrotation Xrotation 
	JOINT LHipJoint
	{
		OFFSET 0 0 0
		CHANNELS 3 Zrotation Yrotation Xrotation
		JOINT LeftHip
		{
			OFFSET 1.26600 -1.82114 0.91038
			CHANNELS 3 Zrotation Yrotation Xrotation
			JOINT LeftKnee
			{
				OFFSET 2.50076 -6.87080 0.00000
				CHANNELS 3 Zrotation Yrotation Xrotation
				JOINT LeftAnkle
				{
					OFFSET 2.57364 -7.07102 0.00000
					CHANNELS 3 Zrotation Yrotation Xrotation
					JOINT LeftToe
					{
						OFFSET 0.13572 -0.37290 1.97004
						CHANNELS 3 Zrotation Yrotation Xrotation
						End Site
						{
							OFFSET 0.00000 -0.00000 1.01383
						}
					}
				}
			}
		}
	}
	JOINT RHipJoint
	{
		OFFSET 0 0 0
		CHANNELS 3 Zrotation Yrotation Xrotation
		JOINT RightHip
		{
			OFFSET -1.20803 -1.82114 0.91038
			CHANNELS 3 Zrotation Yrotation Xrotation
			JOINT RightKnee
			{
				OFFSET -2.54916 -7.00377 0.00000
				CHANNELS 3 Zrotation Yrotation Xrotation
				JOINT RightAnkle
				{
					OFFSET -2.56374 -7.04382 0.00000
					CHANNELS 3 Zrotation Yrotation Xrotation
					JOINT RightToe
					{
						OFFSET -0.23520 -0.64621 2.09921
						CHANNELS 3 Zrotation Yrotation Xrotation
						End Site
						{
							OFFSET -0.00000 -0.00000 1.10065
						}
					}
				}
			}
		}
	}
	JOINT lowerback
	{
		OFFSET 0 0 0
		CHANNELS 3 Zrotation Yrotation Xrotation
		JOINT Chest
		{
			OFFSET 0.05492 2.10797 -0.12074
			CHANNELS 3 Zrotation Yrotation Xrotation
			JOINT Chest2
			{
				OFFSET 0.04577 2.11592 -0.04483
				CHANNELS 3 Zrotation Yrotation Xrotation
				JOINT lowerneck
				{
					OFFSET 0 0 0
					CHANNELS 3 Zrotation Yrotation Xrotation
					JOINT Neck
					{
						OFFSET -0.10759 1.80167 0.15770
						CHANNELS 3 Zrotation Yrotation Xrotation
						JOINT Head
						{
							OFFSET 0.09237 1.77509 -0.40848
							CHANNELS 3 Zrotation Yrotation Xrotation
							End Site
							{
								OFFSET 0.03805 1.84093 -0.15754
							}
						}
					}
				}
				JOINT LeftCollar
				{
					OFFSET 0 0 0
					CHANNELS 3 Zrotation Yrotation Xrotation
					JOINT LeftShoulder
					{
						OFFSET 3.42372 1.09575 -0.28209
CHANNELS 3 Zrotation Xrotation Yrotation
						JOINT LeftElbow
						{
OFFSET 0 -4.956810 0.000000
CHANNELS 3 Zrotation Xrotation Yrotation
							JOINT LeftWrist
							{
OFFSET 0 -3.409150 0.000000
CHANNELS 3 Zrotation Xrotation Yrotation
								JOINT lhand
								{
									OFFSET 0 0 0
CHANNELS 3 Zrotation Xrotation Yrotation
									JOINT LFingers
									{
OFFSET 0 -0.616400 0.000000
CHANNELS 3 Zrotation Xrotation Yrotation
										End Site
										{
OFFSET 0 -0.496960 0.000000
										}
									}
								}
								JOINT LThumb
								{
OFFSET 0 0.000000 0.000000
CHANNELS 3 Zrotation Xrotation Yrotation
									End Site
									{
OFFSET 0 -0.504550 0.504550
									}
								}
							}
						}
					}
				}
				JOINT RightCollar
				{
					OFFSET 0 0 0
					CHANNELS 3 Zrotation Yrotation Xrotation
					JOINT RightShoulder
					{
						OFFSET -3.24731 1.15872 -0.32221
CHANNELS 3 Zrotation Xrotation Yrotation
						JOINT RightElbow
						{
OFFSET 0 -5.352000 0.000000
CHANNELS 3 Zrotation Xrotation Yrotation
							JOINT RightWrist
							{
OFFSET 0 -3.437210 -0.000000
CHANNELS 3 Zrotation Xrotation Yrotation
								JOINT rhand
								{
									OFFSET 0 0 0
CHANNELS 3 Zrotation Xrotation Yrotation
									JOINT RFingers
									{
OFFSET 0 -0.720090 0.000000
CHANNELS 3 Zrotation Xrotation Yrotation
										End Site
										{
OFFSET 0 -0.580560 0.000000
										}
									}
								}
								JOINT RThumb
								{
OFFSET 0 0.000000 0.000000
CHANNELS 3 Zrotation Xrotation Yrotation
									End Site
									{
OFFSET 0 -0.589420 0.589420
									}
								}
							}
						}
					}
				}
			}
		}
	}
}
MOTION
Frames: 4
Frame Time: 0.008333333333333333
-11.456700 17.440700 -0.049400 -177.741000 -27.031600 -178.995000 0.000000 0.000000 0.000000 -15.583900 -9.950000 -10.104100 2.672900 10.145800 29.450100 -2.538200 -28.824600 -0.305300 0.849400 5.878200 16.431300 0.000000 0.000000 0.000000 27.160200 -10.467100 -10.013500 -2.471200 -9.785400 28.284700 -1.699200 -3.821100 -26.244200 -0.485300 -4.467200 12.395000 5.707300 5.337000 2.189600 1.809300 7.171500 0.619800 -1.436700 3.555000 -0.115600 -4.537000 5.833100 -15.152300 4.365700 6.948000 33.645800 3.460400 2.472600 13.513100 -0.000000 -0.000000 0.000000 0.955200 5.249200 -20.438400 11.392900 -18.887900 1.901200 15.809600 8.735300 -22.759600 0.000000 0.000000 0.000000 -7.125000 0.000000 0.000000 -13.670600 53.020400 2.738200 -0.000000 -0.000000 0.000000 -4.806900 -5.507500 20.415700 -27.609300 -38.754000 -9.878100 -22.894900 -22.038100 -12.793700 0.000000 0.000000 0.000000 7.125000 0.000000 -0.000000 3.034200 16.145400 2.073800
-11.388141 17.408048 -0.081316 -178.334321 -25.622767 -178.900513 0.000000 0.000000 0.000000 -16.099897 -10.712611 -9.127686 2.658605 10.120779 29.368733 -2.004291 -26.994214 -2.927785 0.637956 5.109079 14.220174 0.000000 0.000000 0.000000 26.708085 -9.580072 -9.672071 -2.565989 -9.956948 28.837303 -1.794619 -3.044620 -26.552422 -0.671254 -5.238795 14.591125 4.612874 4.474983 2.057629 1.718892 5.984143 1.006582 -0.898508 2.976153 0.174673 -7.933581 1.626275 -15.358559 5.488329 0.364886 37.535824 3.609493 -1.094508 15.787049 0.000000 0.000000 0.000000 0.158649 4.432076 -20.243999 12.010813 -19.819456 2.106961 16.790177 8.630996 -21.991823 0.000000 0.000000 0.000000 -7.125000 0.000000 0.000000 -12.354356 52.463445 2.205781 0.000000 0.000000 0.000000 -4.411101 -5.421197 23.633389 -29.892452 -40.800997 -11.339299 -21.783207 -21.690769 -12.890087 0.000000 0.000000 0.000000 7.125000 0.000000 0.000000 3.806766 16.155498 2.603033
-11.310661 17.376632 -0.130933 -177.224671 -23.429069 -179.711917 0.000000 0.000000 0.000000 -15.047170 -12.248452 -8.412002 2.933320 10.586237 30.896765 -1.271012 -24.015449 -6.206870 0.300813 3.522128 9.736444 0.000000 0.000000 0.000000 27.961353 -8.957264 -8.711848 -2.524742 -9.882727 28.597724 -1.811656 -2.237636 -26.320179 -0.686063 -5.295512 14.753369 4.926129 3.504389 2.508291 2.076498 4.679319 1.395057 -0.711421 2.317918 0.255034 -10.091293 -1.177922 -13.436912 5.200338 -4.409299 39.053184 3.005527 -3.764863 16.669422 0.000000 0.000000 0.000000 -0.155096 4.696842 -22.436555 13.799362 -22.447091 2.751065 21.534011 7.598475 -24.053714 0.000000 0.000000 0.000000 -7.125000 0.000000 0.000000 -8.410709 55.416187 2.162682 0.000000 0.000000 0.000000 -4.524743 -5.123082 28.095841 -29.186405 -40.185479 -10.880905 -21.859583 -21.331915 -13.534437 0.000000 0.000000 0.000000 7.125000 0.000000 0.000000 3.782920 15.461276 2.643303
-11.232356 17.304409 -0.184440 -175.396207 -20.501198 -180.627367 0.000000 0.000000 0.000000 -12.961396 -11.872725 -9.817710 3.772810 11.850848 35.207566 -0.780373 -21.382926 -8.040321 0.185691 2.772777 7.646874 0.000000 0.000000 0.000000 29.912111 -8.656084 -7.732008 -2.430238 -9.709827 28.042111 -1.725438 -0.907571 -25.183549 -0.699644 -5.340017 14.882402 5.876905 2.792221 3.155132 2.833845 3.680625 2.096619 -0.458087 1.802701 0.584719 -12.292878 -2.697715 -11.880742 5.700416 -7.135181 38.999687 3.110401 -5.305318 16.723671 0.000000 0.000000 0.000000 -0.532803 4.637197 -24.904944 16.324649 -25.958701 3.787091 20.626861 3.196721 -23.649338 0.000000 0.000000 0.000000 -7.125000 0.000000 0.000000 -9.180264 54.826139 2.213224 0.000000 0.000000 0.000000 -5.261041 -4.838706 30.916195 -26.581944 -37.776674 -9.242184 -21.225645 -20.243117 -12.941410 0.000000 0.000000 0.000000 7.125000 0.000000 0.000000 4.193933 16.156056 2.869073
